<svg width="377" height="48" viewBox="0 0 377 48" fill="none" xmlns="http://www.w3.org/2000/svg">
<path fill-rule="evenodd" clip-rule="evenodd" d="M29.1859 6.21582C29.8101 6.42052 30.2338 7.00655 30.2368 7.67007C30.2493 7.96124 30.2503 8.19821 30.2503 8.19821C30.2503 8.19821 30.2403 16.2788 20.7789 23.7174C16.9301 26.7434 13.5919 31.6623 12.7201 36.2613C12.6055 36.8762 12.1347 37.3608 11.5284 37.4869C10.922 37.613 10.3005 37.3561 9.95495 36.8357C7.25855 32.7951 4.20074 25.2437 9.29975 16.3015C13.8976 8.23871 22.3868 4.11555 29.1859 6.21582Z" fill="white"/>
<path fill-rule="evenodd" clip-rule="evenodd" d="M15.8592 41.8071C15.207 41.5961 14.7628 40.9845 14.7601 40.2919C14.7471 40.0223 14.7456 39.8098 14.7456 39.8098C14.7456 39.8098 14.7556 31.7291 24.217 24.2906C28.0313 21.2918 31.3438 16.4337 32.2517 11.8713C32.3773 11.2354 32.8698 10.738 33.4995 10.6136C34.1297 10.4886 34.7716 10.7603 35.1251 11.3016C37.8014 15.3726 40.7413 22.8588 35.6962 31.7065C31.109 39.749 22.6506 43.8719 15.8592 41.8071Z" fill="white"/>
<path d="M55.1959 32.5V15.0455H65.73V16.9205H57.3095V22.8182H65.1845V24.6932H57.3095V30.625H65.8664V32.5H55.1959ZM74.0901 32.7727C72.9992 32.7727 72.0361 32.4972 71.2009 31.946C70.3657 31.3892 69.7123 30.6051 69.2407 29.5938C68.7691 28.5767 68.5333 27.375 68.5333 25.9886C68.5333 24.6136 68.7691 23.4205 69.2407 22.4091C69.7123 21.3977 70.3685 20.6165 71.2094 20.0653C72.0503 19.5142 73.0219 19.2386 74.1242 19.2386C74.9765 19.2386 75.6498 19.3807 76.1441 19.6648C76.6441 19.9432 77.0248 20.2614 77.2861 20.6193C77.5532 20.9716 77.7606 21.2614 77.9083 21.4886H78.0788V15.0455H80.0901V32.5H78.1469V30.4886H77.9083C77.7606 30.7273 77.5503 31.0284 77.2776 31.392C77.0049 31.75 76.6157 32.071 76.11 32.3551C75.6043 32.6335 74.931 32.7727 74.0901 32.7727ZM74.3628 30.9659C75.1697 30.9659 75.8515 30.7557 76.4083 30.3352C76.9651 29.9091 77.3884 29.321 77.6782 28.571C77.968 27.8153 78.1128 26.9432 78.1128 25.9545C78.1128 24.9773 77.9708 24.1222 77.6867 23.3892C77.4026 22.6506 76.9822 22.0767 76.4253 21.6676C75.8685 21.2528 75.181 21.0455 74.3628 21.0455C73.5106 21.0455 72.8003 21.2642 72.2322 21.7017C71.6697 22.1335 71.2464 22.7216 70.9623 23.4659C70.6839 24.2045 70.5447 25.0341 70.5447 25.9545C70.5447 26.8864 70.6867 27.733 70.9708 28.4943C71.2606 29.25 71.6867 29.8523 72.2492 30.3011C72.8174 30.7443 73.5219 30.9659 74.3628 30.9659ZM87.7855 32.8068C86.9559 32.8068 86.2031 32.6506 85.5269 32.3381C84.8508 32.0199 84.3139 31.5625 83.9161 30.9659C83.5184 30.3636 83.3195 29.6364 83.3195 28.7841C83.3195 28.0341 83.4673 27.4261 83.7627 26.9602C84.0582 26.4886 84.4531 26.1193 84.9474 25.8523C85.4417 25.5852 85.9872 25.3864 86.5838 25.2557C87.186 25.1193 87.7911 25.0114 88.3991 24.9318C89.1945 24.8295 89.8394 24.7528 90.3338 24.7017C90.8338 24.6449 91.1974 24.5511 91.4247 24.4205C91.6576 24.2898 91.7741 24.0625 91.7741 23.7386V23.6705C91.7741 22.8295 91.544 22.1761 91.0838 21.7102C90.6292 21.2443 89.9389 21.0114 89.0127 21.0114C88.0525 21.0114 87.2997 21.2216 86.7542 21.642C86.2088 22.0625 85.8252 22.5114 85.6036 22.9886L83.6945 22.3068C84.0355 21.5114 84.49 20.892 85.0582 20.4489C85.632 20 86.257 19.6875 86.9332 19.5114C87.615 19.3295 88.2855 19.2386 88.9445 19.2386C89.365 19.2386 89.848 19.2898 90.3934 19.392C90.9445 19.4886 91.4758 19.6903 91.9872 19.9972C92.5042 20.304 92.9332 20.767 93.2741 21.3864C93.615 22.0057 93.7855 22.8352 93.7855 23.875V32.5H91.7741V30.7273H91.6718C91.5355 31.0114 91.3082 31.3153 90.99 31.6392C90.6718 31.9631 90.2485 32.2386 89.7201 32.4659C89.1917 32.6932 88.5468 32.8068 87.7855 32.8068ZM88.0923 31C88.8877 31 89.5582 30.8438 90.1036 30.5312C90.6548 30.2188 91.0695 29.8153 91.348 29.321C91.632 28.8267 91.7741 28.3068 91.7741 27.7614V25.9205C91.6889 26.0227 91.5014 26.1165 91.2116 26.2017C90.9275 26.2812 90.598 26.3523 90.223 26.4148C89.8536 26.4716 89.4928 26.5227 89.1406 26.5682C88.794 26.608 88.5127 26.642 88.2968 26.6705C87.7741 26.7386 87.2855 26.8494 86.8309 27.0028C86.382 27.1506 86.0184 27.375 85.74 27.6761C85.4673 27.9716 85.3309 28.375 85.3309 28.8864C85.3309 29.5852 85.5894 30.1136 86.1065 30.4716C86.6292 30.8239 87.2911 31 88.0923 31ZM97.3366 32.5V19.4091H99.348V32.5H97.3366ZM98.3593 17.2273C97.9673 17.2273 97.6292 17.0938 97.3451 16.8267C97.0667 16.5597 96.9275 16.2386 96.9275 15.8636C96.9275 15.4886 97.0667 15.1676 97.3451 14.9006C97.6292 14.6335 97.9673 14.5 98.3593 14.5C98.7514 14.5 99.0866 14.6335 99.365 14.9006C99.6491 15.1676 99.7912 15.4886 99.7912 15.8636C99.7912 16.2386 99.6491 16.5597 99.365 16.8267C99.0866 17.0938 98.7514 17.2273 98.3593 17.2273ZM104.787 27.7273L104.753 25.2386H105.162L110.889 19.4091H113.378L107.276 25.5795H107.105L104.787 27.7273ZM102.912 32.5V15.0455H104.923V32.5H102.912ZM111.23 32.5L106.116 26.0227L107.548 24.625L113.787 32.5H111.23ZM119.699 32.8068C118.869 32.8068 118.117 32.6506 117.44 32.3381C116.764 32.0199 116.227 31.5625 115.83 30.9659C115.432 30.3636 115.233 29.6364 115.233 28.7841C115.233 28.0341 115.381 27.4261 115.676 26.9602C115.972 26.4886 116.367 26.1193 116.861 25.8523C117.355 25.5852 117.901 25.3864 118.497 25.2557C119.099 25.1193 119.705 25.0114 120.313 24.9318C121.108 24.8295 121.753 24.7528 122.247 24.7017C122.747 24.6449 123.111 24.5511 123.338 24.4205C123.571 24.2898 123.688 24.0625 123.688 23.7386V23.6705C123.688 22.8295 123.457 22.1761 122.997 21.7102C122.543 21.2443 121.852 21.0114 120.926 21.0114C119.966 21.0114 119.213 21.2216 118.668 21.642C118.122 22.0625 117.739 22.5114 117.517 22.9886L115.608 22.3068C115.949 21.5114 116.403 20.892 116.972 20.4489C117.545 20 118.17 19.6875 118.847 19.5114C119.528 19.3295 120.199 19.2386 120.858 19.2386C121.278 19.2386 121.761 19.2898 122.307 19.392C122.858 19.4886 123.389 19.6903 123.901 19.9972C124.418 20.304 124.847 20.767 125.188 21.3864C125.528 22.0057 125.699 22.8352 125.699 23.875V32.5H123.688V30.7273H123.585C123.449 31.0114 123.222 31.3153 122.903 31.6392C122.585 31.9631 122.162 32.2386 121.634 32.4659C121.105 32.6932 120.46 32.8068 119.699 32.8068ZM120.006 31C120.801 31 121.472 30.8438 122.017 30.5312C122.568 30.2188 122.983 29.8153 123.261 29.321C123.545 28.8267 123.688 28.3068 123.688 27.7614V25.9205C123.602 26.0227 123.415 26.1165 123.125 26.2017C122.841 26.2812 122.511 26.3523 122.136 26.4148C121.767 26.4716 121.406 26.5227 121.054 26.5682C120.707 26.608 120.426 26.642 120.21 26.6705C119.688 26.7386 119.199 26.8494 118.744 27.0028C118.295 27.1506 117.932 27.375 117.653 27.6761C117.381 27.9716 117.244 28.375 117.244 28.8864C117.244 29.5852 117.503 30.1136 118.02 30.4716C118.543 30.8239 119.205 31 120.006 31ZM128.875 32.5V30.9659L136.307 21.4205V21.2841H129.114V19.4091H138.898V21.0114L131.671 30.4886V30.625H139.136V32.5H128.875ZM144.126 24.625V32.5H142.114V15.0455H144.126V21.4545H144.296C144.603 20.7784 145.063 20.2415 145.677 19.8438C146.296 19.4403 147.12 19.2386 148.149 19.2386C149.041 19.2386 149.822 19.4176 150.492 19.7756C151.163 20.1278 151.683 20.6705 152.052 21.4034C152.427 22.1307 152.614 23.0568 152.614 24.1818V32.5H150.603V24.3182C150.603 23.2784 150.333 22.4744 149.793 21.9062C149.259 21.3324 148.518 21.0455 147.569 21.0455C146.91 21.0455 146.319 21.1847 145.796 21.4631C145.279 21.7415 144.87 22.1477 144.569 22.6818C144.274 23.2159 144.126 23.8636 144.126 24.625ZM156.174 32.5V19.4091H158.185V32.5H156.174ZM157.197 17.2273C156.805 17.2273 156.467 17.0938 156.183 16.8267C155.904 16.5597 155.765 16.2386 155.765 15.8636C155.765 15.4886 155.904 15.1676 156.183 14.9006C156.467 14.6335 156.805 14.5 157.197 14.5C157.589 14.5 157.924 14.6335 158.203 14.9006C158.487 15.1676 158.629 15.4886 158.629 15.8636C158.629 16.2386 158.487 16.5597 158.203 16.8267C157.924 17.0938 157.589 17.2273 157.197 17.2273ZM163.761 24.625V32.5H161.749V19.4091H163.693V21.4545H163.863C164.17 20.7898 164.636 20.2557 165.261 19.8523C165.886 19.4432 166.693 19.2386 167.681 19.2386C168.568 19.2386 169.343 19.4205 170.008 19.7841C170.673 20.142 171.19 20.6875 171.559 21.4205C171.928 22.1477 172.113 23.0682 172.113 24.1818V32.5H170.102V24.3182C170.102 23.2898 169.835 22.4886 169.301 21.9148C168.766 21.3352 168.034 21.0455 167.102 21.0455C166.46 21.0455 165.886 21.1847 165.38 21.4631C164.88 21.7415 164.485 22.1477 164.195 22.6818C163.906 23.2159 163.761 23.8636 163.761 24.625ZM179.521 32.8068C178.691 32.8068 177.938 32.6506 177.262 32.3381C176.586 32.0199 176.049 31.5625 175.651 30.9659C175.254 30.3636 175.055 29.6364 175.055 28.7841C175.055 28.0341 175.203 27.4261 175.498 26.9602C175.794 26.4886 176.188 26.1193 176.683 25.8523C177.177 25.5852 177.722 25.3864 178.319 25.2557C178.921 25.1193 179.526 25.0114 180.134 24.9318C180.93 24.8295 181.575 24.7528 182.069 24.7017C182.569 24.6449 182.933 24.5511 183.16 24.4205C183.393 24.2898 183.509 24.0625 183.509 23.7386V23.6705C183.509 22.8295 183.279 22.1761 182.819 21.7102C182.365 21.2443 181.674 21.0114 180.748 21.0114C179.788 21.0114 179.035 21.2216 178.49 21.642C177.944 22.0625 177.561 22.5114 177.339 22.9886L175.43 22.3068C175.771 21.5114 176.225 20.892 176.794 20.4489C177.367 20 177.992 19.6875 178.669 19.5114C179.35 19.3295 180.021 19.2386 180.68 19.2386C181.1 19.2386 181.583 19.2898 182.129 19.392C182.68 19.4886 183.211 19.6903 183.722 19.9972C184.24 20.304 184.669 20.767 185.009 21.3864C185.35 22.0057 185.521 22.8352 185.521 23.875V32.5H183.509V30.7273H183.407C183.271 31.0114 183.044 31.3153 182.725 31.6392C182.407 31.9631 181.984 32.2386 181.455 32.4659C180.927 32.6932 180.282 32.8068 179.521 32.8068ZM179.828 31C180.623 31 181.294 30.8438 181.839 30.5312C182.39 30.2188 182.805 29.8153 183.083 29.321C183.367 28.8267 183.509 28.3068 183.509 27.7614V25.9205C183.424 26.0227 183.237 26.1165 182.947 26.2017C182.663 26.2812 182.333 26.3523 181.958 26.4148C181.589 26.4716 181.228 26.5227 180.876 26.5682C180.529 26.608 180.248 26.642 180.032 26.6705C179.509 26.7386 179.021 26.8494 178.566 27.0028C178.117 27.1506 177.754 27.375 177.475 27.6761C177.203 27.9716 177.066 28.375 177.066 28.8864C177.066 29.5852 177.325 30.1136 177.842 30.4716C178.365 30.8239 179.026 31 179.828 31ZM194.015 32.7727C192.924 32.7727 191.961 32.4972 191.126 31.946C190.291 31.3892 189.637 30.6051 189.166 29.5938C188.694 28.5767 188.458 27.375 188.458 25.9886C188.458 24.6136 188.694 23.4205 189.166 22.4091C189.637 21.3977 190.294 20.6165 191.134 20.0653C191.975 19.5142 192.947 19.2386 194.049 19.2386C194.901 19.2386 195.575 19.3807 196.069 19.6648C196.569 19.9432 196.95 20.2614 197.211 20.6193C197.478 20.9716 197.686 21.2614 197.833 21.4886H198.004V15.0455H200.015V32.5H198.072V30.4886H197.833C197.686 30.7273 197.475 31.0284 197.203 31.392C196.93 31.75 196.541 32.071 196.035 32.3551C195.529 32.6335 194.856 32.7727 194.015 32.7727ZM194.288 30.9659C195.095 30.9659 195.776 30.7557 196.333 30.3352C196.89 29.9091 197.313 29.321 197.603 28.571C197.893 27.8153 198.038 26.9432 198.038 25.9545C198.038 24.9773 197.896 24.1222 197.612 23.3892C197.328 22.6506 196.907 22.0767 196.35 21.6676C195.794 21.2528 195.106 21.0455 194.288 21.0455C193.436 21.0455 192.725 21.2642 192.157 21.7017C191.595 22.1335 191.171 22.7216 190.887 23.4659C190.609 24.2045 190.47 25.0341 190.47 25.9545C190.47 26.8864 190.612 27.733 190.896 28.4943C191.186 29.25 191.612 29.8523 192.174 30.3011C192.742 30.7443 193.447 30.9659 194.288 30.9659ZM212.108 27.1477V19.4091H214.12V32.5H212.108V30.2841H211.972C211.665 30.9489 211.188 31.5142 210.54 31.9801C209.892 32.4403 209.074 32.6705 208.085 32.6705C207.267 32.6705 206.54 32.4915 205.904 32.1335C205.267 31.7699 204.767 31.2244 204.404 30.4972C204.04 29.7642 203.858 28.8409 203.858 27.7273V19.4091H205.87V27.5909C205.87 28.5455 206.137 29.3068 206.671 29.875C207.21 30.4432 207.898 30.7273 208.733 30.7273C209.233 30.7273 209.742 30.5994 210.259 30.3438C210.781 30.0881 211.219 29.696 211.571 29.1676C211.929 28.6392 212.108 27.9659 212.108 27.1477ZM238.632 20.5H236.518C236.393 19.892 236.174 19.358 235.862 18.8977C235.555 18.4375 235.18 18.0511 234.737 17.7386C234.299 17.4205 233.814 17.1818 233.279 17.0227C232.745 16.8636 232.189 16.7841 231.609 16.7841C230.552 16.7841 229.595 17.0511 228.737 17.5852C227.885 18.1193 227.206 18.9062 226.7 19.946C226.2 20.9858 225.95 22.2614 225.95 23.7727C225.95 25.2841 226.2 26.5597 226.7 27.5994C227.206 28.6392 227.885 29.4261 228.737 29.9602C229.595 30.4943 230.552 30.7614 231.609 30.7614C232.189 30.7614 232.745 30.6818 233.279 30.5227C233.814 30.3636 234.299 30.1278 234.737 29.8153C235.18 29.4972 235.555 29.108 235.862 28.6477C236.174 28.1818 236.393 27.6477 236.518 27.0455H238.632C238.473 27.9375 238.183 28.7358 237.762 29.4403C237.342 30.1449 236.819 30.7443 236.194 31.2386C235.569 31.7273 234.867 32.0994 234.089 32.3551C233.316 32.6108 232.49 32.7386 231.609 32.7386C230.12 32.7386 228.796 32.375 227.637 31.6477C226.478 30.9205 225.566 29.8864 224.902 28.5455C224.237 27.2045 223.904 25.6136 223.904 23.7727C223.904 21.9318 224.237 20.3409 224.902 19C225.566 17.6591 226.478 16.625 227.637 15.8977C228.796 15.1705 230.12 14.8068 231.609 14.8068C232.49 14.8068 233.316 14.9347 234.089 15.1903C234.867 15.446 235.569 15.821 236.194 16.3153C236.819 16.804 237.342 17.4006 237.762 18.1051C238.183 18.804 238.473 19.6023 238.632 20.5ZM246.973 32.7727C245.791 32.7727 244.754 32.4915 243.862 31.929C242.975 31.3665 242.282 30.5795 241.782 29.5682C241.288 28.5568 241.041 27.375 241.041 26.0227C241.041 24.6591 241.288 23.4687 241.782 22.4517C242.282 21.4347 242.975 20.6449 243.862 20.0824C244.754 19.5199 245.791 19.2386 246.973 19.2386C248.154 19.2386 249.189 19.5199 250.075 20.0824C250.967 20.6449 251.66 21.4347 252.154 22.4517C252.654 23.4687 252.904 24.6591 252.904 26.0227C252.904 27.375 252.654 28.5568 252.154 29.5682C251.66 30.5795 250.967 31.3665 250.075 31.929C249.189 32.4915 248.154 32.7727 246.973 32.7727ZM246.973 30.9659C247.87 30.9659 248.609 30.7358 249.189 30.2756C249.768 29.8153 250.197 29.2102 250.475 28.4602C250.754 27.7102 250.893 26.8977 250.893 26.0227C250.893 25.1477 250.754 24.3324 250.475 23.5767C250.197 22.821 249.768 22.2102 249.189 21.7443C248.609 21.2784 247.87 21.0455 246.973 21.0455C246.075 21.0455 245.336 21.2784 244.757 21.7443C244.177 22.2102 243.748 22.821 243.47 23.5767C243.191 24.3324 243.052 25.1477 243.052 26.0227C243.052 26.8977 243.191 27.7102 243.47 28.4602C243.748 29.2102 244.177 29.8153 244.757 30.2756C245.336 30.7358 246.075 30.9659 246.973 30.9659ZM261.684 19.4091V21.1136H254.627V19.4091H261.684ZM256.741 32.5V17.6023C256.741 16.8523 256.917 16.2273 257.27 15.7273C257.622 15.2273 258.079 14.8523 258.642 14.6023C259.204 14.3523 259.798 14.2273 260.423 14.2273C260.917 14.2273 261.321 14.267 261.633 14.3466C261.946 14.4261 262.179 14.5 262.332 14.5682L261.752 16.3068C261.65 16.2727 261.508 16.2301 261.326 16.179C261.15 16.1278 260.917 16.1023 260.627 16.1023C259.963 16.1023 259.483 16.2699 259.187 16.6051C258.897 16.9403 258.752 17.4318 258.752 18.0795V32.5H256.741ZM270.213 19.4091V21.1136H263.156V19.4091H270.213ZM265.27 32.5V17.6023C265.27 16.8523 265.446 16.2273 265.798 15.7273C266.15 15.2273 266.608 14.8523 267.17 14.6023C267.733 14.3523 268.326 14.2273 268.951 14.2273C269.446 14.2273 269.849 14.267 270.162 14.3466C270.474 14.4261 270.707 14.5 270.86 14.5682L270.281 16.3068C270.179 16.2727 270.037 16.2301 269.855 16.179C269.679 16.1278 269.446 16.1023 269.156 16.1023C268.491 16.1023 268.011 16.2699 267.716 16.6051C267.426 16.9403 267.281 17.4318 267.281 18.0795V32.5H265.27ZM277.861 32.7727C276.6 32.7727 275.512 32.4943 274.597 31.9375C273.688 31.375 272.986 30.5909 272.492 29.5852C272.003 28.5739 271.759 27.3977 271.759 26.0568C271.759 24.7159 272.003 23.5341 272.492 22.5114C272.986 21.483 273.674 20.6818 274.554 20.108C275.441 19.5284 276.475 19.2386 277.657 19.2386C278.338 19.2386 279.012 19.3523 279.677 19.5795C280.341 19.8068 280.946 20.1761 281.492 20.6875C282.037 21.1932 282.472 21.8636 282.796 22.6989C283.12 23.5341 283.282 24.5625 283.282 25.7841V26.6364H273.191V24.8977H281.236C281.236 24.1591 281.088 23.5 280.793 22.9205C280.503 22.3409 280.088 21.8835 279.549 21.5483C279.015 21.2131 278.384 21.0455 277.657 21.0455C276.856 21.0455 276.162 21.2443 275.577 21.642C274.998 22.0341 274.552 22.5455 274.239 23.1761C273.927 23.8068 273.77 24.483 273.77 25.2045V26.3636C273.77 27.3523 273.941 28.1903 274.282 28.8778C274.628 29.5597 275.108 30.0795 275.722 30.4375C276.336 30.7898 277.049 30.9659 277.861 30.9659C278.39 30.9659 278.867 30.892 279.293 30.7443C279.725 30.5909 280.097 30.3636 280.409 30.0625C280.722 29.7557 280.963 29.375 281.134 28.9205L283.077 29.4659C282.873 30.125 282.529 30.7045 282.046 31.2045C281.563 31.6989 280.966 32.0852 280.256 32.3636C279.546 32.6364 278.748 32.7727 277.861 32.7727ZM291.71 32.7727C290.449 32.7727 289.361 32.4943 288.446 31.9375C287.537 31.375 286.835 30.5909 286.341 29.5852C285.852 28.5739 285.608 27.3977 285.608 26.0568C285.608 24.7159 285.852 23.5341 286.341 22.5114C286.835 21.483 287.522 20.6818 288.403 20.108C289.289 19.5284 290.324 19.2386 291.505 19.2386C292.187 19.2386 292.861 19.3523 293.525 19.5795C294.19 19.8068 294.795 20.1761 295.341 20.6875C295.886 21.1932 296.321 21.8636 296.645 22.6989C296.968 23.5341 297.13 24.5625 297.13 25.7841V26.6364H287.039V24.8977H295.085C295.085 24.1591 294.937 23.5 294.642 22.9205C294.352 22.3409 293.937 21.8835 293.397 21.5483C292.863 21.2131 292.233 21.0455 291.505 21.0455C290.704 21.0455 290.011 21.2443 289.426 21.642C288.846 22.0341 288.4 22.5455 288.088 23.1761C287.775 23.8068 287.619 24.483 287.619 25.2045V26.3636C287.619 27.3523 287.789 28.1903 288.13 28.8778C288.477 29.5597 288.957 30.0795 289.571 30.4375C290.184 30.7898 290.897 30.9659 291.71 30.9659C292.238 30.9659 292.716 30.892 293.142 30.7443C293.574 30.5909 293.946 30.3636 294.258 30.0625C294.571 29.7557 294.812 29.375 294.983 28.9205L296.926 29.4659C296.721 30.125 296.378 30.7045 295.895 31.2045C295.412 31.6989 294.815 32.0852 294.105 32.3636C293.395 32.6364 292.596 32.7727 291.71 32.7727ZM306.973 32.5V15.0455H309.086V22.8182H318.393V15.0455H320.507V32.5H318.393V24.6932H309.086V32.5H306.973ZM329.664 32.7727C328.482 32.7727 327.445 32.4915 326.553 31.929C325.667 31.3665 324.974 30.5795 324.474 29.5682C323.979 28.5568 323.732 27.375 323.732 26.0227C323.732 24.6591 323.979 23.4687 324.474 22.4517C324.974 21.4347 325.667 20.6449 326.553 20.0824C327.445 19.5199 328.482 19.2386 329.664 19.2386C330.846 19.2386 331.88 19.5199 332.766 20.0824C333.658 20.6449 334.351 21.4347 334.846 22.4517C335.346 23.4687 335.596 24.6591 335.596 26.0227C335.596 27.375 335.346 28.5568 334.846 29.5682C334.351 30.5795 333.658 31.3665 332.766 31.929C331.88 32.4915 330.846 32.7727 329.664 32.7727ZM329.664 30.9659C330.562 30.9659 331.3 30.7358 331.88 30.2756C332.459 29.8153 332.888 29.2102 333.167 28.4602C333.445 27.7102 333.584 26.8977 333.584 26.0227C333.584 25.1477 333.445 24.3324 333.167 23.5767C332.888 22.821 332.459 22.2102 331.88 21.7443C331.3 21.2784 330.562 21.0455 329.664 21.0455C328.766 21.0455 328.027 21.2784 327.448 21.7443C326.868 22.2102 326.439 22.821 326.161 23.5767C325.883 24.3324 325.743 25.1477 325.743 26.0227C325.743 26.8977 325.883 27.7102 326.161 28.4602C326.439 29.2102 326.868 29.8153 327.448 30.2756C328.027 30.7358 328.766 30.9659 329.664 30.9659ZM346.796 27.1477V19.4091H348.807V32.5H346.796V30.2841H346.66C346.353 30.9489 345.876 31.5142 345.228 31.9801C344.58 32.4403 343.762 32.6705 342.773 32.6705C341.955 32.6705 341.228 32.4915 340.591 32.1335C339.955 31.7699 339.455 31.2244 339.091 30.4972C338.728 29.7642 338.546 28.8409 338.546 27.7273V19.4091H340.557V27.5909C340.557 28.5455 340.824 29.3068 341.358 29.875C341.898 30.4432 342.586 30.7273 343.421 30.7273C343.921 30.7273 344.43 30.5994 344.947 30.3438C345.469 30.0881 345.907 29.696 346.259 29.1676C346.617 28.6392 346.796 27.9659 346.796 27.1477ZM361.644 22.3409L359.837 22.8523C359.724 22.5511 359.556 22.2585 359.334 21.9744C359.118 21.6847 358.823 21.446 358.448 21.2585C358.073 21.071 357.593 20.9773 357.008 20.9773C356.207 20.9773 355.539 21.1619 355.005 21.5312C354.476 21.8949 354.212 22.358 354.212 22.9205C354.212 23.4205 354.394 23.8153 354.758 24.1051C355.121 24.3949 355.689 24.6364 356.462 24.8295L358.405 25.3068C359.576 25.5909 360.448 26.0256 361.022 26.6108C361.596 27.1903 361.883 27.9375 361.883 28.8523C361.883 29.6023 361.667 30.2727 361.235 30.8636C360.809 31.4545 360.212 31.9205 359.445 32.2614C358.678 32.6023 357.786 32.7727 356.769 32.7727C355.434 32.7727 354.329 32.483 353.454 31.9034C352.579 31.3239 352.025 30.4773 351.792 29.3636L353.701 28.8864C353.883 29.5909 354.226 30.1193 354.732 30.4716C355.243 30.8239 355.911 31 356.735 31C357.672 31 358.417 30.8011 358.968 30.4034C359.525 30 359.803 29.517 359.803 28.9545C359.803 28.5 359.644 28.1193 359.326 27.8125C359.008 27.5 358.519 27.267 357.86 27.1136L355.678 26.6023C354.479 26.3182 353.599 25.8778 353.036 25.2812C352.479 24.679 352.201 23.9261 352.201 23.0227C352.201 22.2841 352.408 21.6307 352.823 21.0625C353.243 20.4943 353.814 20.0483 354.536 19.7244C355.263 19.4006 356.087 19.2386 357.008 19.2386C358.303 19.2386 359.32 19.5227 360.059 20.0909C360.803 20.6591 361.332 21.4091 361.644 22.3409ZM370.279 32.7727C369.018 32.7727 367.93 32.4943 367.015 31.9375C366.106 31.375 365.404 30.5909 364.91 29.5852C364.421 28.5739 364.177 27.3977 364.177 26.0568C364.177 24.7159 364.421 23.5341 364.91 22.5114C365.404 21.483 366.092 20.6818 366.972 20.108C367.859 19.5284 368.893 19.2386 370.074 19.2386C370.756 19.2386 371.43 19.3523 372.094 19.5795C372.759 19.8068 373.364 20.1761 373.91 20.6875C374.455 21.1932 374.89 21.8636 375.214 22.6989C375.538 23.5341 375.699 24.5625 375.699 25.7841V26.6364H365.609V24.8977H373.654C373.654 24.1591 373.506 23.5 373.211 22.9205C372.921 22.3409 372.506 21.8835 371.967 21.5483C371.432 21.2131 370.802 21.0455 370.074 21.0455C369.273 21.0455 368.58 21.2443 367.995 21.642C367.415 22.0341 366.969 22.5455 366.657 23.1761C366.344 23.8068 366.188 24.483 366.188 25.2045V26.3636C366.188 27.3523 366.359 28.1903 366.699 28.8778C367.046 29.5597 367.526 30.0795 368.14 30.4375C368.753 30.7898 369.467 30.9659 370.279 30.9659C370.807 30.9659 371.285 30.892 371.711 30.7443C372.143 30.5909 372.515 30.3636 372.827 30.0625C373.14 29.7557 373.381 29.375 373.552 28.9205L375.495 29.4659C375.29 30.125 374.947 30.7045 374.464 31.2045C373.981 31.6989 373.384 32.0852 372.674 32.3636C371.964 32.6364 371.165 32.7727 370.279 32.7727Z" fill="white"/>
</svg>
