<svg width="164" height="45" viewBox="0 0 164 45" fill="none" xmlns="http://www.w3.org/2000/svg">
<path d="M5 39V35.2353H35.1176V39H5ZM6.88235 7H38.8823V8.88235H40.7647V20.1765H38.8823V22.0588H33.2353V27.7059H31.3529V29.5882H29.4706V31.4706H10.6471V29.5882H8.76471V27.7059H6.88235V7ZM33.2353 10.7647V18.2941H37V10.7647H33.2353ZM10.6471 10.7647V25.8235H12.5294V27.7059H27.5882V25.8235H29.4706V10.7647H10.6471Z" fill="white"/>
<path d="M55.611 31L63.4178 15.5568V15.4205H54.4178V13.5455H65.5997V15.5227L57.8269 31H55.611ZM68.6565 31V29.4659L74.4179 23.1591C75.094 22.4205 75.6508 21.7784 76.0883 21.233C76.5258 20.6818 76.8497 20.1648 77.0599 19.6818C77.2758 19.1932 77.3838 18.6818 77.3838 18.1477C77.3838 17.5341 77.2361 17.0028 76.9406 16.554C76.6508 16.1051 76.2531 15.7585 75.7474 15.5142C75.2417 15.2699 74.6736 15.1477 74.0429 15.1477C73.3724 15.1477 72.7872 15.2869 72.2872 15.5653C71.7929 15.8381 71.4093 16.2216 71.1366 16.7159C70.8696 17.2102 70.7361 17.7898 70.7361 18.4545H68.7247C68.7247 17.4318 68.9605 16.5341 69.4321 15.7614C69.9037 14.9886 70.5457 14.3864 71.3582 13.9545C72.1764 13.5227 73.094 13.3068 74.1111 13.3068C75.1338 13.3068 76.04 13.5227 76.8298 13.9545C77.6196 14.3864 78.2389 14.9687 78.6878 15.7017C79.1366 16.4347 79.3611 17.25 79.3611 18.1477C79.3611 18.7898 79.2446 19.4176 79.0116 20.0312C78.7843 20.6392 78.3866 21.3182 77.8184 22.0682C77.2559 22.8125 76.4747 23.7216 75.4747 24.7955L71.5542 28.9886V29.125H79.6679V31H68.6565ZM89.2041 13.5455V31H87.0905V15.7614H86.9882L82.7268 18.5909V16.4432L87.0905 13.5455H89.2041ZM101.041 31V13.5455H107.143C108.359 13.5455 109.362 13.7557 110.152 14.1761C110.941 14.5909 111.529 15.1506 111.916 15.8551C112.302 16.554 112.495 17.3295 112.495 18.1818C112.495 18.9318 112.362 19.5511 112.095 20.0398C111.833 20.5284 111.487 20.9148 111.055 21.1989C110.629 21.483 110.166 21.6932 109.666 21.8295V22C110.2 22.0341 110.737 22.2216 111.277 22.5625C111.816 22.9034 112.268 23.392 112.632 24.0284C112.995 24.6648 113.177 25.4432 113.177 26.3636C113.177 27.2386 112.978 28.0256 112.581 28.7244C112.183 29.4233 111.555 29.9773 110.697 30.3864C109.839 30.7955 108.723 31 107.348 31H101.041ZM103.154 29.125H107.348C108.728 29.125 109.708 28.858 110.288 28.3239C110.873 27.7841 111.166 27.1307 111.166 26.3636C111.166 25.7727 111.015 25.2273 110.714 24.7273C110.413 24.2216 109.984 23.8182 109.427 23.517C108.87 23.2102 108.211 23.0568 107.45 23.0568H103.154V29.125ZM103.154 21.2159H107.075C107.711 21.2159 108.285 21.0909 108.797 20.8409C109.314 20.5909 109.723 20.2386 110.024 19.7841C110.331 19.3295 110.484 18.7955 110.484 18.1818C110.484 17.4148 110.217 16.7642 109.683 16.2301C109.149 15.6903 108.302 15.4205 107.143 15.4205H103.154V21.2159ZM116.257 31V17.9091H118.269V31H116.257ZM117.28 15.7273C116.888 15.7273 116.55 15.5938 116.266 15.3267C115.988 15.0597 115.848 14.7386 115.848 14.3636C115.848 13.9886 115.988 13.6676 116.266 13.4006C116.55 13.1335 116.888 13 117.28 13C117.672 13 118.007 13.1335 118.286 13.4006C118.57 13.6676 118.712 13.9886 118.712 14.3636C118.712 14.7386 118.57 15.0597 118.286 15.3267C118.007 15.5938 117.672 15.7273 117.28 15.7273ZM131.106 20.8409L129.299 21.3523C129.185 21.0511 129.017 20.7585 128.796 20.4744C128.58 20.1847 128.284 19.946 127.909 19.7585C127.534 19.571 127.054 19.4773 126.469 19.4773C125.668 19.4773 125 19.6619 124.466 20.0312C123.938 20.3949 123.674 20.858 123.674 21.4205C123.674 21.9205 123.856 22.3153 124.219 22.6051C124.583 22.8949 125.151 23.1364 125.924 23.3295L127.867 23.8068C129.037 24.0909 129.909 24.5256 130.483 25.1108C131.057 25.6903 131.344 26.4375 131.344 27.3523C131.344 28.1023 131.128 28.7727 130.696 29.3636C130.27 29.9545 129.674 30.4205 128.907 30.7614C128.14 31.1023 127.248 31.2727 126.231 31.2727C124.895 31.2727 123.79 30.983 122.915 30.4034C122.04 29.8239 121.486 28.9773 121.253 27.8636L123.162 27.3864C123.344 28.0909 123.688 28.6193 124.194 28.9716C124.705 29.3239 125.373 29.5 126.196 29.5C127.134 29.5 127.878 29.3011 128.429 28.9034C128.986 28.5 129.265 28.017 129.265 27.4545C129.265 27 129.106 26.6193 128.787 26.3125C128.469 26 127.981 25.767 127.321 25.6136L125.14 25.1023C123.941 24.8182 123.06 24.3778 122.498 23.7812C121.941 23.179 121.662 22.4261 121.662 21.5227C121.662 20.7841 121.87 20.1307 122.284 19.5625C122.705 18.9943 123.276 18.5483 123.998 18.2244C124.725 17.9006 125.549 17.7386 126.469 17.7386C127.765 17.7386 128.782 18.0227 129.52 18.5909C130.265 19.1591 130.793 19.9091 131.106 20.8409ZM139.945 17.9091V19.6136H133.161V17.9091H139.945ZM135.138 14.7727H137.15V27.25C137.15 27.8182 137.232 28.2443 137.397 28.5284C137.567 28.8068 137.783 28.9943 138.044 29.0909C138.312 29.1818 138.593 29.2273 138.888 29.2273C139.11 29.2273 139.292 29.2159 139.434 29.1932C139.576 29.1648 139.689 29.142 139.775 29.125L140.184 30.9318C140.047 30.983 139.857 31.0341 139.613 31.0852C139.368 31.142 139.059 31.1705 138.684 31.1705C138.115 31.1705 137.559 31.0483 137.013 30.804C136.473 30.5597 136.025 30.1875 135.667 29.6875C135.314 29.1875 135.138 28.5568 135.138 27.7955V14.7727ZM142.851 31V17.9091H144.794V19.8864H144.93C145.169 19.2386 145.601 18.7131 146.226 18.3097C146.851 17.9062 147.555 17.7045 148.339 17.7045C148.487 17.7045 148.672 17.7074 148.893 17.7131C149.115 17.7187 149.282 17.7273 149.396 17.7386V19.7841C149.328 19.767 149.172 19.7415 148.927 19.7074C148.689 19.6676 148.436 19.6477 148.169 19.6477C147.532 19.6477 146.964 19.7812 146.464 20.0483C145.97 20.3097 145.578 20.6733 145.288 21.1392C145.004 21.5994 144.862 22.125 144.862 22.7159V31H142.851ZM156.58 31.2727C155.398 31.2727 154.361 30.9915 153.469 30.429C152.583 29.8665 151.89 29.0795 151.39 28.0682C150.895 27.0568 150.648 25.875 150.648 24.5227C150.648 23.1591 150.895 21.9687 151.39 20.9517C151.89 19.9347 152.583 19.1449 153.469 18.5824C154.361 18.0199 155.398 17.7386 156.58 17.7386C157.762 17.7386 158.796 18.0199 159.682 18.5824C160.574 19.1449 161.268 19.9347 161.762 20.9517C162.262 21.9687 162.512 23.1591 162.512 24.5227C162.512 25.875 162.262 27.0568 161.762 28.0682C161.268 29.0795 160.574 29.8665 159.682 30.429C158.796 30.9915 157.762 31.2727 156.58 31.2727ZM156.58 29.4659C157.478 29.4659 158.216 29.2358 158.796 28.7756C159.375 28.3153 159.804 27.7102 160.083 26.9602C160.361 26.2102 160.5 25.3977 160.5 24.5227C160.5 23.6477 160.361 22.8324 160.083 22.0767C159.804 21.321 159.375 20.7102 158.796 20.2443C158.216 19.7784 157.478 19.5455 156.58 19.5455C155.682 19.5455 154.944 19.7784 154.364 20.2443C153.785 20.7102 153.356 21.321 153.077 22.0767C152.799 22.8324 152.66 23.6477 152.66 24.5227C152.66 25.3977 152.799 26.2102 153.077 26.9602C153.356 27.7102 153.785 28.3153 154.364 28.7756C154.944 29.2358 155.682 29.4659 156.58 29.4659Z" fill="white"/>
</svg>
