<svg width="276" height="45" viewBox="0 0 276 45" fill="none" xmlns="http://www.w3.org/2000/svg">
<path d="M37.1544 20.1806C36.9669 18.4555 36.1251 16.8638 34.5745 15.812C29.4756 12.3522 25.4696 15.2658 22.1915 14.5375C18.9137 13.8087 15.7666 11.838 13.8149 11.2598C9.62086 10.0164 5.56085 13.4116 6.0385 17.7137V19.9821C5.90898 21.1255 6.09951 22.3735 6.71271 23.6429C9.68735 29.8057 21.4091 33.5681 28.7468 32.9298C33.9673 32.4756 36.9233 28.6993 37.1774 25.0789C37.1774 25.0789 37.1544 20.3041 37.1544 20.1806ZM35.3628 22.414C34.7631 24.7153 32.6733 27.3008 28.6053 27.6549C28.1166 27.6979 27.5964 27.7189 27.0577 27.7189C23.563 27.7189 19.3579 26.8191 15.8111 25.3115C11.9857 23.6859 9.2787 21.5466 8.18834 19.2878C7.41554 17.6873 7.45506 16.0656 8.29886 14.7211C9.10467 13.4366 10.5412 12.6389 12.0472 12.6389C12.4809 12.6389 12.919 12.7034 13.3492 12.8305C13.998 13.0235 14.9223 13.4527 15.9012 13.9069C17.5793 14.6862 19.6675 15.6555 21.8358 16.1377C22.324 16.2457 22.8362 16.2988 23.4004 16.2988C24.3242 16.2988 25.2636 16.1527 26.1719 16.0122C27.1078 15.8671 28.0756 15.717 29.0545 15.717C30.7336 15.717 32.1947 16.1782 33.6541 17.1686C35.5804 18.4755 35.8 20.7348 35.3628 22.414Z" fill="white"/>
<path d="M20.3378 17.4857C18.4016 16.9279 16.6159 16.1006 15.1344 15.4129C14.2581 15.0058 13.3528 14.5851 12.832 14.4311C12.5695 14.3535 12.3058 14.314 12.0472 14.314C11.1619 14.314 10.3171 14.7852 9.84094 15.543C9.20217 16.5614 9.48131 17.6313 9.82889 18.3505C10.7137 20.1846 13.1541 22.0579 16.5229 23.4899C18.0029 24.0071 20.3703 24.0071 20.3703 22.368C20.3703 20.7403 19.2779 19.3628 20.3378 17.4857Z" fill="white"/>
<path d="M32.6317 18.529C31.4727 17.7427 30.3693 17.3921 29.0544 17.3921C28.2171 17.3921 27.3607 17.5241 26.451 17.6662C25.5202 17.8102 24.4647 17.9738 23.4003 17.9738C22.8486 17.9738 22.3329 17.9303 21.8357 17.8453C21.4626 18.7646 21.4841 20.6173 22.0093 22.3679C22.5555 24.1886 22.5555 24.8263 24.1036 25.4641C25.1049 25.7367 26.1338 25.7523 27.0577 25.7523C27.5424 25.7523 28.0095 25.7332 28.4472 25.6952C32.3786 25.3531 33.3855 22.6341 33.6006 21.8087C33.7366 21.2856 34.0687 19.5044 32.6317 18.529ZM27.3813 22.55C25.4696 22.7321 25.1049 20.4562 26.9261 20.0911C28.5723 19.7619 30.1243 22.2889 27.3813 22.55Z" fill="white"/>
<path d="M64.6894 17.9091C64.5871 17.0455 64.1724 16.375 63.4451 15.8977C62.7178 15.4205 61.8258 15.1818 60.7689 15.1818C59.9962 15.1818 59.3201 15.3068 58.7405 15.5568C58.1667 15.8068 57.7178 16.1506 57.3939 16.5881C57.0758 17.0256 56.9167 17.5227 56.9167 18.0795C56.9167 18.5455 57.0275 18.946 57.2491 19.2812C57.4763 19.6108 57.7661 19.8864 58.1184 20.108C58.4707 20.3239 58.84 20.5028 59.2263 20.6449C59.6127 20.7812 59.9678 20.892 60.2917 20.9773L62.0644 21.4545C62.5189 21.5739 63.0246 21.7386 63.5814 21.9489C64.1439 22.1591 64.6809 22.446 65.1922 22.8097C65.7093 23.1676 66.1354 23.6278 66.4707 24.1903C66.8059 24.7528 66.9735 25.4432 66.9735 26.2614C66.9735 27.2045 66.7263 28.0568 66.232 28.8182C65.7434 29.5795 65.0275 30.1847 64.0843 30.6335C63.1468 31.0824 62.0076 31.3068 60.6667 31.3068C59.4167 31.3068 58.3343 31.1051 57.4195 30.7017C56.5104 30.2983 55.7945 29.7358 55.2718 29.0142C54.7547 28.2926 54.4621 27.4545 54.3939 26.5H56.5758C56.6326 27.1591 56.8542 27.7045 57.2405 28.1364C57.6326 28.5625 58.1269 28.8807 58.7235 29.0909C59.3258 29.2955 59.9735 29.3977 60.6667 29.3977C61.4735 29.3977 62.1979 29.267 62.84 29.0057C63.482 28.7386 63.9905 28.3693 64.3655 27.8977C64.7405 27.4205 64.928 26.8636 64.928 26.2273C64.928 25.6477 64.7661 25.1761 64.4422 24.8125C64.1184 24.4489 63.6922 24.1534 63.1638 23.9261C62.6354 23.6989 62.0644 23.5 61.4508 23.3295L59.303 22.7159C57.9394 22.3239 56.8599 21.7642 56.0644 21.0369C55.2689 20.3097 54.8712 19.358 54.8712 18.1818C54.8712 17.2045 55.1354 16.3523 55.6638 15.625C56.1979 14.892 56.9138 14.3239 57.8116 13.9205C58.715 13.5114 59.7235 13.3068 60.8371 13.3068C61.9621 13.3068 62.9621 13.5085 63.8371 13.9119C64.7121 14.3097 65.4053 14.8551 65.9167 15.5483C66.4337 16.2415 66.7064 17.0284 66.7349 17.9091H64.6894ZM75.7491 17.9091V19.6136H68.965V17.9091H75.7491ZM70.9423 14.7727H72.9536V27.25C72.9536 27.8182 73.036 28.2443 73.2008 28.5284C73.3712 28.8068 73.5872 28.9943 73.8485 29.0909C74.1156 29.1818 74.3968 29.2273 74.6923 29.2273C74.9139 29.2273 75.0957 29.2159 75.2377 29.1932C75.3798 29.1648 75.4934 29.142 75.5786 29.125L75.9877 30.9318C75.8514 30.983 75.661 31.0341 75.4167 31.0852C75.1724 31.142 74.8627 31.1705 74.4877 31.1705C73.9195 31.1705 73.3627 31.0483 72.8173 30.804C72.2775 30.5597 71.8286 30.1875 71.4707 29.6875C71.1184 29.1875 70.9423 28.5568 70.9423 27.7955V14.7727ZM82.5069 31.3068C81.6774 31.3068 80.9245 31.1506 80.2484 30.8381C79.5723 30.5199 79.0353 30.0625 78.6376 29.4659C78.2399 28.8636 78.041 28.1364 78.041 27.2841C78.041 26.5341 78.1887 25.9261 78.4842 25.4602C78.7797 24.9886 79.1745 24.6193 79.6689 24.3523C80.1632 24.0852 80.7086 23.8864 81.3052 23.7557C81.9075 23.6193 82.5126 23.5114 83.1206 23.4318C83.916 23.3295 84.5609 23.2528 85.0552 23.2017C85.5552 23.1449 85.9189 23.0511 86.1461 22.9205C86.3791 22.7898 86.4956 22.5625 86.4956 22.2386V22.1705C86.4956 21.3295 86.2655 20.6761 85.8052 20.2102C85.3507 19.7443 84.6603 19.5114 83.7342 19.5114C82.774 19.5114 82.0211 19.7216 81.4757 20.142C80.9302 20.5625 80.5467 21.0114 80.3251 21.4886L78.416 20.8068C78.7569 20.0114 79.2115 19.392 79.7797 18.9489C80.3535 18.5 80.9785 18.1875 81.6547 18.0114C82.3365 17.8295 83.0069 17.7386 83.666 17.7386C84.0865 17.7386 84.5694 17.7898 85.1149 17.892C85.666 17.9886 86.1973 18.1903 86.7086 18.4972C87.2257 18.804 87.6547 19.267 87.9956 19.8864C88.3365 20.5057 88.5069 21.3352 88.5069 22.375V31H86.4956V29.2273H86.3933C86.2569 29.5114 86.0297 29.8153 85.7115 30.1392C85.3933 30.4631 84.97 30.7386 84.4416 30.9659C83.9132 31.1932 83.2683 31.3068 82.5069 31.3068ZM82.8137 29.5C83.6092 29.5 84.2797 29.3438 84.8251 29.0312C85.3762 28.7188 85.791 28.3153 86.0694 27.821C86.3535 27.3267 86.4956 26.8068 86.4956 26.2614V24.4205C86.4103 24.5227 86.2228 24.6165 85.9331 24.7017C85.649 24.7812 85.3194 24.8523 84.9444 24.9148C84.5751 24.9716 84.2143 25.0227 83.862 25.0682C83.5155 25.108 83.2342 25.142 83.0183 25.1705C82.4956 25.2386 82.0069 25.3494 81.5524 25.5028C81.1035 25.6506 80.7399 25.875 80.4615 26.1761C80.1887 26.4716 80.0524 26.875 80.0524 27.3864C80.0524 28.0852 80.3109 28.6136 80.828 28.9716C81.3507 29.3239 82.0126 29.5 82.8137 29.5ZM93.9331 26.2273L93.899 23.7386H94.3081L100.035 17.9091H102.524L96.4217 24.0795H96.2513L93.9331 26.2273ZM92.0581 31V13.5455H94.0695V31H92.0581ZM100.376 31L95.2626 24.5227L96.6945 23.125L102.933 31H100.376ZM109.942 31.2727C108.681 31.2727 107.593 30.9943 106.678 30.4375C105.769 29.875 105.067 29.0909 104.573 28.0852C104.084 27.0739 103.84 25.8977 103.84 24.5568C103.84 23.2159 104.084 22.0341 104.573 21.0114C105.067 19.983 105.755 19.1818 106.636 18.608C107.522 18.0284 108.556 17.7386 109.738 17.7386C110.42 17.7386 111.093 17.8523 111.758 18.0795C112.422 18.3068 113.028 18.6761 113.573 19.1875C114.118 19.6932 114.553 20.3636 114.877 21.1989C115.201 22.0341 115.363 23.0625 115.363 24.2841V25.1364H105.272V23.3977H113.317C113.317 22.6591 113.17 22 112.874 21.4205C112.584 20.8409 112.17 20.3835 111.63 20.0483C111.096 19.7131 110.465 19.5455 109.738 19.5455C108.937 19.5455 108.243 19.7443 107.658 20.142C107.079 20.5341 106.633 21.0455 106.32 21.6761C106.008 22.3068 105.851 22.983 105.851 23.7045V24.8636C105.851 25.8523 106.022 26.6903 106.363 27.3778C106.709 28.0597 107.19 28.5795 107.803 28.9375C108.417 29.2898 109.13 29.4659 109.942 29.4659C110.471 29.4659 110.948 29.392 111.374 29.2443C111.806 29.0909 112.178 28.8636 112.491 28.5625C112.803 28.2557 113.045 27.875 113.215 27.4205L115.158 27.9659C114.954 28.625 114.61 29.2045 114.127 29.7045C113.644 30.1989 113.047 30.5852 112.337 30.8636C111.627 31.1364 110.829 31.2727 109.942 31.2727ZM120.314 23.125V31H118.302V13.5455H120.314V19.9545H120.484C120.791 19.2784 121.251 18.7415 121.865 18.3438C122.484 17.9403 123.308 17.7386 124.337 17.7386C125.229 17.7386 126.01 17.9176 126.68 18.2756C127.351 18.6278 127.871 19.1705 128.24 19.9034C128.615 20.6307 128.802 21.5568 128.802 22.6818V31H126.791V22.8182C126.791 21.7784 126.521 20.9744 125.981 20.4062C125.447 19.8324 124.706 19.5455 123.757 19.5455C123.098 19.5455 122.507 19.6847 121.984 19.9631C121.467 20.2415 121.058 20.6477 120.757 21.1818C120.462 21.7159 120.314 22.3636 120.314 23.125ZM137.68 31.2727C136.499 31.2727 135.462 30.9915 134.57 30.429C133.683 29.8665 132.99 29.0795 132.49 28.0682C131.996 27.0568 131.749 25.875 131.749 24.5227C131.749 23.1591 131.996 21.9687 132.49 20.9517C132.99 19.9347 133.683 19.1449 134.57 18.5824C135.462 18.0199 136.499 17.7386 137.68 17.7386C138.862 17.7386 139.896 18.0199 140.783 18.5824C141.675 19.1449 142.368 19.9347 142.862 20.9517C143.362 21.9687 143.612 23.1591 143.612 24.5227C143.612 25.875 143.362 27.0568 142.862 28.0682C142.368 29.0795 141.675 29.8665 140.783 30.429C139.896 30.9915 138.862 31.2727 137.68 31.2727ZM137.68 29.4659C138.578 29.4659 139.317 29.2358 139.896 28.7756C140.476 28.3153 140.905 27.7102 141.183 26.9602C141.462 26.2102 141.601 25.3977 141.601 24.5227C141.601 23.6477 141.462 22.8324 141.183 22.0767C140.905 21.321 140.476 20.7102 139.896 20.2443C139.317 19.7784 138.578 19.5455 137.68 19.5455C136.783 19.5455 136.044 19.7784 135.464 20.2443C134.885 20.7102 134.456 21.321 134.177 22.0767C133.899 22.8324 133.76 23.6477 133.76 24.5227C133.76 25.3977 133.899 26.2102 134.177 26.9602C134.456 27.7102 134.885 28.3153 135.464 28.7756C136.044 29.2358 136.783 29.4659 137.68 29.4659ZM154.812 25.6477V17.9091H156.824V31H154.812V28.7841H154.676C154.369 29.4489 153.892 30.0142 153.244 30.4801C152.597 30.9403 151.778 31.1705 150.79 31.1705C149.972 31.1705 149.244 30.9915 148.608 30.6335C147.972 30.2699 147.472 29.7244 147.108 28.9972C146.744 28.2642 146.562 27.3409 146.562 26.2273V17.9091H148.574V26.0909C148.574 27.0455 148.841 27.8068 149.375 28.375C149.915 28.9432 150.602 29.2273 151.437 29.2273C151.937 29.2273 152.446 29.0994 152.963 28.8438C153.486 28.5881 153.923 28.196 154.276 27.6676C154.633 27.1392 154.812 26.4659 154.812 25.6477ZM169.661 20.8409L167.854 21.3523C167.74 21.0511 167.572 20.7585 167.351 20.4744C167.135 20.1847 166.839 19.946 166.464 19.7585C166.089 19.571 165.609 19.4773 165.024 19.4773C164.223 19.4773 163.555 19.6619 163.021 20.0312C162.493 20.3949 162.229 20.858 162.229 21.4205C162.229 21.9205 162.411 22.3153 162.774 22.6051C163.138 22.8949 163.706 23.1364 164.479 23.3295L166.422 23.8068C167.592 24.0909 168.464 24.5256 169.038 25.1108C169.612 25.6903 169.899 26.4375 169.899 27.3523C169.899 28.1023 169.683 28.7727 169.251 29.3636C168.825 29.9545 168.229 30.4205 167.462 30.7614C166.695 31.1023 165.803 31.2727 164.786 31.2727C163.45 31.2727 162.345 30.983 161.47 30.4034C160.595 29.8239 160.041 28.9773 159.808 27.8636L161.717 27.3864C161.899 28.0909 162.243 28.6193 162.749 28.9716C163.26 29.3239 163.928 29.5 164.751 29.5C165.689 29.5 166.433 29.3011 166.984 28.9034C167.541 28.5 167.82 28.017 167.82 27.4545C167.82 27 167.661 26.6193 167.342 26.3125C167.024 26 166.536 25.767 165.876 25.6136L163.695 25.1023C162.496 24.8182 161.615 24.3778 161.053 23.7812C160.496 23.179 160.217 22.4261 160.217 21.5227C160.217 20.7841 160.425 20.1307 160.839 19.5625C161.26 18.9943 161.831 18.5483 162.553 18.2244C163.28 17.9006 164.104 17.7386 165.024 17.7386C166.32 17.7386 167.337 18.0227 168.075 18.5909C168.82 19.1591 169.348 19.9091 169.661 20.8409ZM178.295 31.2727C177.034 31.2727 175.946 30.9943 175.031 30.4375C174.122 29.875 173.42 29.0909 172.926 28.0852C172.438 27.0739 172.193 25.8977 172.193 24.5568C172.193 23.2159 172.438 22.0341 172.926 21.0114C173.42 19.983 174.108 19.1818 174.989 18.608C175.875 18.0284 176.909 17.7386 178.091 17.7386C178.773 17.7386 179.446 17.8523 180.111 18.0795C180.776 18.3068 181.381 18.6761 181.926 19.1875C182.472 19.6932 182.906 20.3636 183.23 21.1989C183.554 22.0341 183.716 23.0625 183.716 24.2841V25.1364H173.625V23.3977H181.67C181.67 22.6591 181.523 22 181.227 21.4205C180.938 20.8409 180.523 20.3835 179.983 20.0483C179.449 19.7131 178.818 19.5455 178.091 19.5455C177.29 19.5455 176.597 19.7443 176.011 20.142C175.432 20.5341 174.986 21.0455 174.673 21.6761C174.361 22.3068 174.205 22.983 174.205 23.7045V24.8636C174.205 25.8523 174.375 26.6903 174.716 27.3778C175.063 28.0597 175.543 28.5795 176.156 28.9375C176.77 29.2898 177.483 29.4659 178.295 29.4659C178.824 29.4659 179.301 29.392 179.727 29.2443C180.159 29.0909 180.531 28.8636 180.844 28.5625C181.156 28.2557 181.398 27.875 181.568 27.4205L183.511 27.9659C183.307 28.625 182.963 29.2045 182.48 29.7045C181.997 30.1989 181.401 30.5852 180.69 30.8636C179.98 31.1364 179.182 31.2727 178.295 31.2727ZM193.558 31V13.5455H195.672V29.125H203.786V31H193.558ZM211.984 31.2727C210.802 31.2727 209.765 30.9915 208.873 30.429C207.987 29.8665 207.293 29.0795 206.793 28.0682C206.299 27.0568 206.052 25.875 206.052 24.5227C206.052 23.1591 206.299 21.9687 206.793 20.9517C207.293 19.9347 207.987 19.1449 208.873 18.5824C209.765 18.0199 210.802 17.7386 211.984 17.7386C213.166 17.7386 214.2 18.0199 215.086 18.5824C215.978 19.1449 216.671 19.9347 217.166 20.9517C217.666 21.9687 217.916 23.1591 217.916 24.5227C217.916 25.875 217.666 27.0568 217.166 28.0682C216.671 29.0795 215.978 29.8665 215.086 30.429C214.2 30.9915 213.166 31.2727 211.984 31.2727ZM211.984 29.4659C212.881 29.4659 213.62 29.2358 214.2 28.7756C214.779 28.3153 215.208 27.7102 215.487 26.9602C215.765 26.2102 215.904 25.3977 215.904 24.5227C215.904 23.6477 215.765 22.8324 215.487 22.0767C215.208 21.321 214.779 20.7102 214.2 20.2443C213.62 19.7784 212.881 19.5455 211.984 19.5455C211.086 19.5455 210.347 19.7784 209.768 20.2443C209.188 20.7102 208.759 21.321 208.481 22.0767C208.203 22.8324 208.063 23.6477 208.063 24.5227C208.063 25.3977 208.203 26.2102 208.481 26.9602C208.759 27.7102 209.188 28.3153 209.768 28.7756C210.347 29.2358 211.086 29.4659 211.984 29.4659ZM222.877 23.125V31H220.866V17.9091H222.809V19.9545H222.98C223.286 19.2898 223.752 18.7557 224.377 18.3523C225.002 17.9432 225.809 17.7386 226.798 17.7386C227.684 17.7386 228.46 17.9205 229.124 18.2841C229.789 18.642 230.306 19.1875 230.676 19.9205C231.045 20.6477 231.23 21.5682 231.23 22.6818V31H229.218V22.8182C229.218 21.7898 228.951 20.9886 228.417 20.4148C227.883 19.8352 227.15 19.5455 226.218 19.5455C225.576 19.5455 225.002 19.6847 224.497 19.9631C223.997 20.2415 223.602 20.6477 223.312 21.1818C223.022 21.7159 222.877 22.3636 222.877 23.125ZM239.728 31.2727C238.637 31.2727 237.674 30.9972 236.839 30.446C236.004 29.8892 235.35 29.1051 234.879 28.0938C234.407 27.0767 234.171 25.875 234.171 24.4886C234.171 23.1136 234.407 21.9205 234.879 20.9091C235.35 19.8977 236.007 19.1165 236.847 18.5653C237.688 18.0142 238.66 17.7386 239.762 17.7386C240.615 17.7386 241.288 17.8807 241.782 18.1648C242.282 18.4432 242.663 18.7614 242.924 19.1193C243.191 19.4716 243.399 19.7614 243.546 19.9886H243.717V13.5455H245.728V31H243.785V28.9886H243.546C243.399 29.2273 243.188 29.5284 242.916 29.892C242.643 30.25 242.254 30.571 241.748 30.8551C241.242 31.1335 240.569 31.2727 239.728 31.2727ZM240.001 29.4659C240.808 29.4659 241.49 29.2557 242.046 28.8352C242.603 28.4091 243.026 27.821 243.316 27.071C243.606 26.3153 243.751 25.4432 243.751 24.4545C243.751 23.4773 243.609 22.6222 243.325 21.8892C243.041 21.1506 242.62 20.5767 242.063 20.1676C241.507 19.7528 240.819 19.5455 240.001 19.5455C239.149 19.5455 238.438 19.7642 237.87 20.2017C237.308 20.6335 236.884 21.2216 236.6 21.9659C236.322 22.7045 236.183 23.5341 236.183 24.4545C236.183 25.3864 236.325 26.233 236.609 26.9943C236.899 27.75 237.325 28.3523 237.887 28.8011C238.455 29.2443 239.16 29.4659 240.001 29.4659ZM254.889 31.2727C253.708 31.2727 252.671 30.9915 251.779 30.429C250.892 29.8665 250.199 29.0795 249.699 28.0682C249.205 27.0568 248.958 25.875 248.958 24.5227C248.958 23.1591 249.205 21.9687 249.699 20.9517C250.199 19.9347 250.892 19.1449 251.779 18.5824C252.671 18.0199 253.708 17.7386 254.889 17.7386C256.071 17.7386 257.105 18.0199 257.992 18.5824C258.884 19.1449 259.577 19.9347 260.071 20.9517C260.571 21.9687 260.821 23.1591 260.821 24.5227C260.821 25.875 260.571 27.0568 260.071 28.0682C259.577 29.0795 258.884 29.8665 257.992 30.429C257.105 30.9915 256.071 31.2727 254.889 31.2727ZM254.889 29.4659C255.787 29.4659 256.526 29.2358 257.105 28.7756C257.685 28.3153 258.114 27.7102 258.392 26.9602C258.671 26.2102 258.81 25.3977 258.81 24.5227C258.81 23.6477 258.671 22.8324 258.392 22.0767C258.114 21.321 257.685 20.7102 257.105 20.2443C256.526 19.7784 255.787 19.5455 254.889 19.5455C253.992 19.5455 253.253 19.7784 252.673 20.2443C252.094 20.7102 251.665 21.321 251.387 22.0767C251.108 22.8324 250.969 23.6477 250.969 24.5227C250.969 25.3977 251.108 26.2102 251.387 26.9602C251.665 27.7102 252.094 28.3153 252.673 28.7756C253.253 29.2358 253.992 29.4659 254.889 29.4659ZM265.783 23.125V31H263.772V17.9091H265.715V19.9545H265.885C266.192 19.2898 266.658 18.7557 267.283 18.3523C267.908 17.9432 268.715 17.7386 269.703 17.7386C270.59 17.7386 271.365 17.9205 272.03 18.2841C272.695 18.642 273.212 19.1875 273.581 19.9205C273.951 20.6477 274.135 21.5682 274.135 22.6818V31H272.124V22.8182C272.124 21.7898 271.857 20.9886 271.323 20.4148C270.789 19.8352 270.056 19.5455 269.124 19.5455C268.482 19.5455 267.908 19.6847 267.402 19.9631C266.902 20.2415 266.507 20.6477 266.218 21.1818C265.928 21.7159 265.783 22.3636 265.783 23.125Z" fill="white"/>
</svg>
