<svg width="233" height="46" viewBox="0 0 233 46" fill="none" xmlns="http://www.w3.org/2000/svg">
<rect x="0.5" y="0.5" width="232" height="45" rx="7.5" fill="black" stroke="#9CA3AF" stroke-dasharray="2 2"/>
<path d="M59.5228 17.3636H61.1365L64.3638 22.7955H64.5001L67.7274 17.3636H69.341L65.1365 24.2045V29H63.7274V24.2045L59.5228 17.3636ZM73.2127 29.1818C72.4248 29.1818 71.7336 28.9943 71.1389 28.6193C70.548 28.2443 70.0858 27.7197 69.7525 27.0455C69.423 26.3712 69.2582 25.5833 69.2582 24.6818C69.2582 23.7727 69.423 22.9792 69.7525 22.3011C70.0858 21.6231 70.548 21.0966 71.1389 20.7216C71.7336 20.3466 72.4248 20.1591 73.2127 20.1591C74.0006 20.1591 74.69 20.3466 75.2809 20.7216C75.8756 21.0966 76.3377 21.6231 76.6673 22.3011C77.0006 22.9792 77.1673 23.7727 77.1673 24.6818C77.1673 25.5833 77.0006 26.3712 76.6673 27.0455C76.3377 27.7197 75.8756 28.2443 75.2809 28.6193C74.69 28.9943 74.0006 29.1818 73.2127 29.1818ZM73.2127 27.9773C73.8112 27.9773 74.3036 27.8239 74.69 27.517C75.0764 27.2102 75.3623 26.8068 75.548 26.3068C75.7336 25.8068 75.8264 25.2652 75.8264 24.6818C75.8264 24.0985 75.7336 23.5549 75.548 23.0511C75.3623 22.5473 75.0764 22.1402 74.69 21.8295C74.3036 21.5189 73.8112 21.3636 73.2127 21.3636C72.6142 21.3636 72.1218 21.5189 71.7355 21.8295C71.3491 22.1402 71.0631 22.5473 70.8775 23.0511C70.6919 23.5549 70.5991 24.0985 70.5991 24.6818C70.5991 25.2652 70.6919 25.8068 70.8775 26.3068C71.0631 26.8068 71.3491 27.2102 71.7355 27.517C72.1218 27.8239 72.6142 27.9773 73.2127 27.9773ZM84.6341 25.4318V20.2727H85.9751V29H84.6341V27.5227H84.5432C84.3387 27.9659 84.0205 28.3428 83.5887 28.6534C83.1569 28.9602 82.6114 29.1136 81.9523 29.1136C81.4069 29.1136 80.922 28.9943 80.4978 28.7557C80.0735 28.5133 79.7402 28.1496 79.4978 27.6648C79.2554 27.1761 79.1341 26.5606 79.1341 25.8182V20.2727H80.4751V25.7273C80.4751 26.3636 80.6531 26.8712 81.0091 27.25C81.369 27.6288 81.8273 27.8182 82.3841 27.8182C82.7175 27.8182 83.0565 27.733 83.4012 27.5625C83.7497 27.392 84.0413 27.1307 84.2762 26.7784C84.5148 26.4261 84.6341 25.9773 84.6341 25.4318ZM88.351 29V20.2727H89.6465V21.5909H89.7374C89.8965 21.1591 90.1844 20.8087 90.601 20.5398C91.0177 20.2708 91.4874 20.1364 92.0101 20.1364C92.1086 20.1364 92.2317 20.1383 92.3794 20.142C92.5272 20.1458 92.6389 20.1515 92.7147 20.1591V21.5227C92.6692 21.5114 92.565 21.4943 92.4022 21.4716C92.2431 21.4451 92.0745 21.4318 91.8965 21.4318C91.4722 21.4318 91.0934 21.5208 90.7601 21.6989C90.4306 21.8731 90.1692 22.1155 89.976 22.4261C89.7866 22.733 89.6919 23.0833 89.6919 23.4773V29H88.351ZM98.826 29V17.3636H100.235V27.75H105.644V29H98.826ZM111.11 29.1818C110.322 29.1818 109.63 28.9943 109.036 28.6193C108.445 28.2443 107.983 27.7197 107.649 27.0455C107.32 26.3712 107.155 25.5833 107.155 24.6818C107.155 23.7727 107.32 22.9792 107.649 22.3011C107.983 21.6231 108.445 21.0966 109.036 20.7216C109.63 20.3466 110.322 20.1591 111.11 20.1591C111.897 20.1591 112.587 20.3466 113.178 20.7216C113.772 21.0966 114.235 21.6231 114.564 22.3011C114.897 22.9792 115.064 23.7727 115.064 24.6818C115.064 25.5833 114.897 26.3712 114.564 27.0455C114.235 27.7197 113.772 28.2443 113.178 28.6193C112.587 28.9943 111.897 29.1818 111.11 29.1818ZM111.11 27.9773C111.708 27.9773 112.201 27.8239 112.587 27.517C112.973 27.2102 113.259 26.8068 113.445 26.3068C113.63 25.8068 113.723 25.2652 113.723 24.6818C113.723 24.0985 113.63 23.5549 113.445 23.0511C113.259 22.5473 112.973 22.1402 112.587 21.8295C112.201 21.5189 111.708 21.3636 111.11 21.3636C110.511 21.3636 110.019 21.5189 109.632 21.8295C109.246 22.1402 108.96 22.5473 108.774 23.0511C108.589 23.5549 108.496 24.0985 108.496 24.6818C108.496 25.2652 108.589 25.8068 108.774 26.3068C108.96 26.8068 109.246 27.2102 109.632 27.517C110.019 27.8239 110.511 27.9773 111.11 27.9773ZM120.554 32.4545C119.906 32.4545 119.349 32.3712 118.883 32.2045C118.417 32.0417 118.029 31.8258 117.719 31.5568C117.412 31.2917 117.167 31.0076 116.986 30.7045L118.054 29.9545C118.175 30.1136 118.328 30.2955 118.514 30.5C118.7 30.7083 118.953 30.8883 119.275 31.0398C119.601 31.1951 120.027 31.2727 120.554 31.2727C121.258 31.2727 121.84 31.1023 122.298 30.7614C122.756 30.4205 122.986 29.8864 122.986 29.1591V27.3864H122.872C122.773 27.5455 122.633 27.7424 122.451 27.9773C122.273 28.2083 122.016 28.4148 121.679 28.5966C121.345 28.7746 120.895 28.8636 120.326 28.8636C119.622 28.8636 118.989 28.697 118.429 28.3636C117.872 28.0303 117.431 27.5455 117.105 26.9091C116.783 26.2727 116.622 25.5 116.622 24.5909C116.622 23.697 116.779 22.9186 117.094 22.2557C117.408 21.589 117.845 21.0739 118.406 20.7102C118.967 20.3428 119.614 20.1591 120.349 20.1591C120.917 20.1591 121.368 20.2538 121.701 20.4432C122.039 20.6288 122.296 20.8409 122.474 21.0795C122.656 21.3144 122.796 21.5076 122.895 21.6591H123.031V20.2727H124.326V29.25C124.326 30 124.156 30.6098 123.815 31.0795C123.478 31.553 123.023 31.8996 122.451 32.1193C121.883 32.3428 121.251 32.4545 120.554 32.4545ZM120.508 27.6591C121.046 27.6591 121.501 27.536 121.872 27.2898C122.243 27.0436 122.525 26.6894 122.719 26.2273C122.912 25.7652 123.008 25.2121 123.008 24.5682C123.008 23.9394 122.914 23.3845 122.724 22.9034C122.535 22.4223 122.255 22.0455 121.883 21.7727C121.512 21.5 121.054 21.3636 120.508 21.3636C119.94 21.3636 119.467 21.5076 119.088 21.7955C118.713 22.0833 118.431 22.4697 118.241 22.9545C118.056 23.4394 117.963 23.9773 117.963 24.5682C117.963 25.1742 118.058 25.7102 118.247 26.1761C118.44 26.6383 118.724 27.0019 119.099 27.267C119.478 27.5284 119.948 27.6591 120.508 27.6591ZM130.246 29.1818C129.459 29.1818 128.767 28.9943 128.173 28.6193C127.582 28.2443 127.12 27.7197 126.786 27.0455C126.457 26.3712 126.292 25.5833 126.292 24.6818C126.292 23.7727 126.457 22.9792 126.786 22.3011C127.12 21.6231 127.582 21.0966 128.173 20.7216C128.767 20.3466 129.459 20.1591 130.246 20.1591C131.034 20.1591 131.724 20.3466 132.315 20.7216C132.909 21.0966 133.371 21.6231 133.701 22.3011C134.034 22.9792 134.201 23.7727 134.201 24.6818C134.201 25.5833 134.034 26.3712 133.701 27.0455C133.371 27.7197 132.909 28.2443 132.315 28.6193C131.724 28.9943 131.034 29.1818 130.246 29.1818ZM130.246 27.9773C130.845 27.9773 131.337 27.8239 131.724 27.517C132.11 27.2102 132.396 26.8068 132.582 26.3068C132.767 25.8068 132.86 25.2652 132.86 24.6818C132.86 24.0985 132.767 23.5549 132.582 23.0511C132.396 22.5473 132.11 22.1402 131.724 21.8295C131.337 21.5189 130.845 21.3636 130.246 21.3636C129.648 21.3636 129.156 21.5189 128.769 21.8295C128.383 22.1402 128.097 22.5473 127.911 23.0511C127.726 23.5549 127.633 24.0985 127.633 24.6818C127.633 25.2652 127.726 25.8068 127.911 26.3068C128.097 26.8068 128.383 27.2102 128.769 27.517C129.156 27.8239 129.648 27.9773 130.246 27.9773ZM141.929 23.75V29H140.588V17.3636H141.929V21.6364H142.042C142.247 21.1856 142.554 20.8277 142.963 20.5625C143.376 20.2936 143.925 20.1591 144.611 20.1591C145.205 20.1591 145.726 20.2784 146.173 20.517C146.62 20.7519 146.967 21.1136 147.213 21.6023C147.463 22.0871 147.588 22.7045 147.588 23.4545V29H146.247V23.5455C146.247 22.8523 146.067 22.3163 145.707 21.9375C145.351 21.5549 144.857 21.3636 144.224 21.3636C143.785 21.3636 143.391 21.4564 143.042 21.642C142.698 21.8277 142.425 22.0985 142.224 22.4545C142.027 22.8106 141.929 23.2424 141.929 23.75ZM153.62 29.1818C152.779 29.1818 152.054 28.9962 151.444 28.625C150.838 28.25 150.37 27.7273 150.041 27.0568C149.715 26.3826 149.552 25.5985 149.552 24.7045C149.552 23.8106 149.715 23.0227 150.041 22.3409C150.37 21.6553 150.828 21.1212 151.416 20.7386C152.006 20.3523 152.696 20.1591 153.484 20.1591C153.938 20.1591 154.387 20.2348 154.83 20.3864C155.274 20.5379 155.677 20.7841 156.041 21.125C156.404 21.4621 156.694 21.9091 156.91 22.4659C157.126 23.0227 157.234 23.7083 157.234 24.5227V25.0909H150.506V23.9318H155.87C155.87 23.4394 155.772 23 155.575 22.6136C155.381 22.2273 155.105 21.9223 154.745 21.6989C154.389 21.4754 153.969 21.3636 153.484 21.3636C152.95 21.3636 152.488 21.4962 152.097 21.7614C151.711 22.0227 151.414 22.3636 151.205 22.7841C150.997 23.2045 150.893 23.6553 150.893 24.1364V24.9091C150.893 25.5682 151.006 26.1269 151.234 26.5852C151.465 27.0398 151.785 27.3864 152.194 27.625C152.603 27.8598 153.078 27.9773 153.62 27.9773C153.972 27.9773 154.291 27.928 154.575 27.8295C154.863 27.7273 155.111 27.5758 155.319 27.375C155.527 27.1705 155.688 26.9167 155.802 26.6136L157.097 26.9773C156.961 27.4167 156.732 27.803 156.41 28.1364C156.088 28.4659 155.69 28.7235 155.217 28.9091C154.743 29.0909 154.211 29.1818 153.62 29.1818ZM159.194 29V20.2727H160.489V21.5909H160.58C160.739 21.1591 161.027 20.8087 161.444 20.5398C161.86 20.2708 162.33 20.1364 162.853 20.1364C162.951 20.1364 163.074 20.1383 163.222 20.142C163.37 20.1458 163.481 20.1515 163.557 20.1591V21.5227C163.512 21.5114 163.408 21.4943 163.245 21.4716C163.086 21.4451 162.917 21.4318 162.739 21.4318C162.315 21.4318 161.936 21.5208 161.603 21.6989C161.273 21.8731 161.012 22.1155 160.819 22.4261C160.629 22.733 160.534 23.0833 160.534 23.4773V29H159.194ZM168.46 29.1818C167.619 29.1818 166.894 28.9962 166.284 28.625C165.678 28.25 165.21 27.7273 164.881 27.0568C164.555 26.3826 164.392 25.5985 164.392 24.7045C164.392 23.8106 164.555 23.0227 164.881 22.3409C165.21 21.6553 165.668 21.1212 166.256 20.7386C166.846 20.3523 167.536 20.1591 168.324 20.1591C168.778 20.1591 169.227 20.2348 169.67 20.3864C170.114 20.5379 170.517 20.7841 170.881 21.125C171.244 21.4621 171.534 21.9091 171.75 22.4659C171.966 23.0227 172.074 23.7083 172.074 24.5227V25.0909H165.346V23.9318H170.71C170.71 23.4394 170.612 23 170.415 22.6136C170.221 22.2273 169.945 21.9223 169.585 21.6989C169.229 21.4754 168.809 21.3636 168.324 21.3636C167.79 21.3636 167.328 21.4962 166.937 21.7614C166.551 22.0227 166.254 22.3636 166.045 22.7841C165.837 23.2045 165.733 23.6553 165.733 24.1364V24.9091C165.733 25.5682 165.846 26.1269 166.074 26.5852C166.305 27.0398 166.625 27.3864 167.034 27.625C167.443 27.8598 167.918 27.9773 168.46 27.9773C168.812 27.9773 169.131 27.928 169.415 27.8295C169.703 27.7273 169.951 27.5758 170.159 27.375C170.367 27.1705 170.528 26.9167 170.642 26.6136L171.937 26.9773C171.801 27.4167 171.572 27.803 171.25 28.1364C170.928 28.4659 170.53 28.7235 170.057 28.9091C169.583 29.0909 169.051 29.1818 168.46 29.1818Z" fill="#9CA3AF"/>
</svg>
