<svg width="74" height="21" viewBox="0 0 74 21" fill="none" xmlns="http://www.w3.org/2000/svg">
<path d="M8.53125 5.27557C8.45549 4.60322 8.14299 4.08239 7.59375 3.71307C7.04451 3.33902 6.35322 3.15199 5.51989 3.15199C4.9233 3.15199 4.4072 3.24669 3.97159 3.43608C3.53598 3.62074 3.19744 3.87642 2.95597 4.20312C2.71922 4.52509 2.60085 4.89205 2.60085 5.30398C2.60085 5.64962 2.68134 5.94792 2.84233 6.19886C3.00805 6.44981 3.22349 6.66051 3.48864 6.83097C3.75852 6.99669 4.04735 7.13636 4.35511 7.25C4.66288 7.3589 4.95881 7.44886 5.2429 7.51989L6.66335 7.8892C7.12737 8.00284 7.60322 8.15672 8.09091 8.35085C8.5786 8.54498 9.03078 8.80066 9.44744 9.1179C9.86411 9.43513 10.2003 9.82812 10.456 10.2969C10.7164 10.7656 10.8466 11.3267 10.8466 11.9801C10.8466 12.804 10.6335 13.5355 10.2074 14.1747C9.78599 14.8139 9.17282 15.3182 8.3679 15.6875C7.56771 16.0568 6.59943 16.2415 5.46307 16.2415C4.37405 16.2415 3.43182 16.0687 2.63636 15.723C1.84091 15.3774 1.21828 14.8873 0.768466 14.2528C0.318655 13.6136 0.0700758 12.8561 0.0227273 11.9801H2.22443C2.26705 12.5057 2.4375 12.9437 2.7358 13.294C3.03883 13.6397 3.42472 13.8977 3.89347 14.0682C4.36695 14.2339 4.88542 14.3168 5.44886 14.3168C6.06913 14.3168 6.62074 14.2197 7.10369 14.0256C7.59138 13.8267 7.97491 13.5521 8.25426 13.2017C8.53362 12.8466 8.6733 12.4323 8.6733 11.9588C8.6733 11.5279 8.55019 11.1752 8.30398 10.9006C8.0625 10.6259 7.73343 10.3987 7.31676 10.2188C6.90483 10.0388 6.43845 9.88021 5.91761 9.7429L4.19886 9.27415C3.03409 8.95691 2.1108 8.49053 1.42898 7.875C0.751894 7.25947 0.413352 6.44508 0.413352 5.43182C0.413352 4.59375 0.640625 3.86222 1.09517 3.23722C1.54972 2.61222 2.16525 2.12689 2.94176 1.78125C3.71828 1.43087 4.59422 1.25568 5.5696 1.25568C6.55445 1.25568 7.4233 1.4285 8.17614 1.77415C8.93371 2.11979 9.5303 2.59564 9.96591 3.2017C10.4015 3.80303 10.6288 4.49432 10.6477 5.27557H8.53125ZM20.2092 11.4759V5.09091H22.3398V16H20.2518V14.1108H20.1381C19.8872 14.6932 19.4847 15.1785 18.9308 15.5668C18.3815 15.9503 17.6973 16.142 16.8782 16.142C16.1774 16.142 15.5572 15.9882 15.0174 15.6804C14.4824 15.3679 14.061 14.9062 13.7532 14.2955C13.4502 13.6847 13.2987 12.9295 13.2987 12.0298V5.09091H15.4222V11.7741C15.4222 12.5175 15.6282 13.1094 16.0401 13.5497C16.4521 13.9901 16.9871 14.2102 17.6452 14.2102C18.043 14.2102 18.4383 14.1108 18.8313 13.9119C19.229 13.7131 19.5581 13.4124 19.8185 13.0099C20.0837 12.6075 20.2139 12.0961 20.2092 11.4759ZM25.1932 20.0909V5.09091H27.267V6.85938H27.4446C27.5677 6.6321 27.7453 6.36932 27.9773 6.07102C28.2093 5.77273 28.5313 5.51231 28.9432 5.28977C29.3551 5.0625 29.8996 4.94886 30.5767 4.94886C31.4574 4.94886 32.2434 5.1714 32.9347 5.61648C33.6259 6.06155 34.1681 6.70312 34.5611 7.54119C34.9588 8.37926 35.1577 9.38778 35.1577 10.5668C35.1577 11.7457 34.9612 12.7566 34.5682 13.5994C34.1752 14.4375 33.6354 15.0838 32.9489 15.5384C32.2623 15.9882 31.4787 16.2131 30.598 16.2131C29.9351 16.2131 29.393 16.1018 28.9716 15.8793C28.5549 15.6567 28.2282 15.3963 27.9915 15.098C27.7547 14.7997 27.5724 14.5346 27.4446 14.3026H27.3168V20.0909H25.1932ZM27.2741 10.5455C27.2741 11.3125 27.3854 11.9848 27.608 12.5625C27.8305 13.1402 28.1525 13.5923 28.5739 13.919C28.9953 14.241 29.5114 14.402 30.1222 14.402C30.7566 14.402 31.2869 14.2339 31.7131 13.8977C32.1392 13.5568 32.4612 13.0952 32.679 12.5128C32.9015 11.9304 33.0128 11.2746 33.0128 10.5455C33.0128 9.82576 32.9039 9.17945 32.6861 8.60653C32.473 8.03362 32.151 7.58144 31.7202 7.25C31.294 6.91856 30.7614 6.75284 30.1222 6.75284C29.5066 6.75284 28.9858 6.91146 28.5597 7.22869C28.1383 7.54593 27.8187 7.98864 27.6009 8.55682C27.383 9.125 27.2741 9.78788 27.2741 10.5455ZM40.7116 16.2415C40.0204 16.2415 39.3954 16.1136 38.8366 15.858C38.2779 15.5975 37.8352 15.2211 37.5085 14.7287C37.1866 14.2363 37.0256 13.6326 37.0256 12.9176C37.0256 12.3021 37.1439 11.7955 37.3807 11.3977C37.6174 11 37.937 10.6851 38.3395 10.4531C38.742 10.2211 39.1918 10.0459 39.6889 9.92756C40.1861 9.80919 40.6927 9.71922 41.2088 9.65767C41.8622 9.58191 42.3925 9.52036 42.7997 9.47301C43.2069 9.42093 43.5028 9.33807 43.6875 9.22443C43.8722 9.1108 43.9645 8.92614 43.9645 8.67045V8.62074C43.9645 8.00047 43.7893 7.51989 43.4389 7.17898C43.0933 6.83807 42.5772 6.66761 41.8906 6.66761C41.1757 6.66761 40.6122 6.82623 40.2003 7.14347C39.7931 7.45597 39.5114 7.80398 39.3551 8.1875L37.3594 7.73295C37.5961 7.07008 37.9418 6.53504 38.3963 6.12784C38.8556 5.71591 39.3835 5.41761 39.9801 5.23295C40.5767 5.04356 41.2041 4.94886 41.8622 4.94886C42.2978 4.94886 42.7595 5.00095 43.2472 5.10511C43.7396 5.20455 44.1989 5.3892 44.625 5.65909C45.0559 5.92898 45.4086 6.31487 45.6832 6.81676C45.9579 7.31392 46.0952 7.96023 46.0952 8.75568V16H44.0213V14.5085H43.9361C43.7988 14.7831 43.5928 15.053 43.3182 15.3182C43.0436 15.5833 42.6908 15.8035 42.2599 15.9787C41.8291 16.1539 41.313 16.2415 40.7116 16.2415ZM41.1733 14.5369C41.7604 14.5369 42.2623 14.4209 42.679 14.1889C43.1004 13.9569 43.42 13.6539 43.6378 13.2798C43.8603 12.901 43.9716 12.4962 43.9716 12.0653V10.6591C43.8958 10.7348 43.7491 10.8059 43.5312 10.8722C43.3182 10.9337 43.0743 10.9882 42.7997 11.0355C42.5251 11.0781 42.2576 11.1184 41.9972 11.1562C41.7367 11.1894 41.5189 11.2178 41.3438 11.2415C40.9318 11.2936 40.5554 11.3812 40.2145 11.5043C39.8783 11.6274 39.6084 11.8049 39.4048 12.0369C39.206 12.2642 39.1065 12.5672 39.1065 12.946C39.1065 13.4716 39.3007 13.8693 39.6889 14.1392C40.0772 14.4044 40.572 14.5369 41.1733 14.5369ZM49.0941 16V1.45455H51.2177V6.85938H51.3455C51.4686 6.6321 51.6462 6.36932 51.8782 6.07102C52.1102 5.77273 52.4322 5.51231 52.8441 5.28977C53.256 5.0625 53.8005 4.94886 54.4776 4.94886C55.3583 4.94886 56.1443 5.1714 56.8356 5.61648C57.5269 6.06155 58.069 6.70312 58.462 7.54119C58.8597 8.37926 59.0586 9.38778 59.0586 10.5668C59.0586 11.7457 58.8621 12.7566 58.4691 13.5994C58.0761 14.4375 57.5363 15.0838 56.8498 15.5384C56.1632 15.9882 55.3796 16.2131 54.4989 16.2131C53.8361 16.2131 53.2939 16.1018 52.8725 15.8793C52.4558 15.6567 52.1291 15.3963 51.8924 15.098C51.6557 14.7997 51.4734 14.5346 51.3455 14.3026H51.168V16H49.0941ZM51.1751 10.5455C51.1751 11.3125 51.2863 11.9848 51.5089 12.5625C51.7314 13.1402 52.0534 13.5923 52.4748 13.919C52.8962 14.241 53.4123 14.402 54.0231 14.402C54.6576 14.402 55.1879 14.2339 55.614 13.8977C56.0401 13.5568 56.3621 13.0952 56.5799 12.5128C56.8024 11.9304 56.9137 11.2746 56.9137 10.5455C56.9137 9.82576 56.8048 9.17945 56.587 8.60653C56.3739 8.03362 56.052 7.58144 55.6211 7.25C55.195 6.91856 54.6623 6.75284 54.0231 6.75284C53.4076 6.75284 52.8867 6.91146 52.4606 7.22869C52.0392 7.54593 51.7196 7.98864 51.5018 8.55682C51.284 9.125 51.1751 9.78788 51.1751 10.5455ZM61.4432 16V5.09091H63.5668V16H61.4432ZM62.5156 3.40767C62.1463 3.40767 61.8291 3.28456 61.5639 3.03835C61.3035 2.7874 61.1733 2.48911 61.1733 2.14347C61.1733 1.79309 61.3035 1.49479 61.5639 1.24858C61.8291 0.997632 62.1463 0.872159 62.5156 0.872159C62.8849 0.872159 63.1998 0.997632 63.4602 1.24858C63.7254 1.49479 63.858 1.79309 63.858 2.14347C63.858 2.48911 63.7254 2.7874 63.4602 3.03835C63.1998 3.28456 62.8849 3.40767 62.5156 3.40767ZM68.5472 1.45455V16H66.4237V1.45455H68.5472ZM73.5277 1.45455V16H71.4041V1.45455H73.5277Z" fill="url(#paint0_linear_304_1058)"/>
<defs>
<linearGradient id="paint0_linear_304_1058" x1="-1" y1="9" x2="75" y2="9" gradientUnits="userSpaceOnUse">
<stop stop-color="#AF80FF"/>
<stop offset="1" stop-color="#904FFF"/>
</linearGradient>
</defs>
</svg>
